<svg id="Capa_1" data-name="Capa 1" xmlns="http://www.w3.org/2000/svg" viewBox="0 0 1059.81 938.47">
  <title>PS</title>
  <g>
    <path d="M1507.49,1070.6a239.09,239.09,0,0,0-39-38.66c-28.36-22.64-60.09-39.71-92.11-56.44-22.3-11.65-44-24.42-65.64-37.33a111.9,111.9,0,0,1-31-26.63c-18.86-24-15.33-57.4,8.06-77,8.5-7.11,18.3-11.73,28.87-14.75,15.69-4.48,31.8-5.86,48-5.18,47.77,2,93.74,11.21,136.18,34.45,9.3,5.09,14.51,2.08,14.55-8.32.15-37.64,0-75.29,0-112.93,0-9.16-4.12-15.41-13-18.29-9.16-3-18.2-6.41-27.52-8.75-42.85-10.75-86.57-13.71-130.53-12.5-31.86.88-63.09,6.4-92.88,18.34C1198.21,728,1158.7,763.74,1138,818.25c-11.61,30.53-14.12,62.2-10.57,94.57,3.69,33.58,15,64,35.85,90.73,14.25,18.33,31.38,33.61,50.14,47.13,23.54,17,48.94,30.74,74.84,43.7,29,14.5,57.48,29.9,82,51.43a106.67,106.67,0,0,1,20.61,23.83,57.92,57.92,0,0,1-21.09,80.85,106.71,106.71,0,0,1-26.86,10.22c-22.93,5.59-46.25,4.75-69.57,2.4-47.82-4.82-92.26-19.55-133.13-44.92a60.32,60.32,0,0,0-6.39-3.83c-4.11-1.87-6.62-.65-7.53,3.74a38.29,38.29,0,0,0-.4,7.43q0,29.4,0,58.8c0,19.6.24,39.2-.1,58.79-.14,8.16,2.87,13.29,10.2,17a250.22,250.22,0,0,0,51.32,19.54A449,449,0,0,0,1333.34,1393c33.12-2.38,65.23-9.27,95.67-22.82,46.17-20.56,81-52.66,100.75-99.94,8.81-21.17,13.34-43.35,14.74-66.16C1547.48,1155.33,1538.49,1109.9,1507.49,1070.6Z" transform="translate(-485.23 -455.68)"/>
    <path d="M880.74,482.2c-42.06-16.82-86.07-25-131.12-25.93-49.45-1-98.94-.49-148.41.09-32.34.38-64.68,1.9-97,3.23-16.18.67-19,3.86-19,19.43v884.05c0,2.8-.08,5.61.05,8.41.38,7.66,2.4,9.62,10.32,10,2.48.13,5,0,7.47,0H614.18c19.05,0,19.06,0,19.07-19.2v-313c8.09,0,14.58-.14,21.07,0,33,.88,65.93,1.62,98.84-1.7,42-4.24,82.9-13.17,121.79-30,77.23-33.38,130.62-88.9,154.33-170.37,19.21-66,19.34-132.76,1.16-199C1008.45,568.11,957.8,513,880.74,482.2Zm5.18,324.09C874.36,850.42,847,881.17,805,899c-21.39,9.08-43.85,14-66.83,16.08-33.2,3-66.48,2.51-99.73.48a41.14,41.14,0,0,1-4.61-.89V590.47c6.84-.64,13.23-1.66,19.64-1.75,27-.39,54.11-1.13,81.15-.53a195.56,195.56,0,0,1,70.79,15c42.88,17.77,70.37,49.12,81.53,94.22A217.69,217.69,0,0,1,885.92,806.29Z" transform="translate(-485.23 -455.68)"/>
  </g>
</svg>
