<svg id="Capa_1" data-name="Capa 1" xmlns="http://www.w3.org/2000/svg" viewBox="0 0 1969.66 1447.15">
  <title>AE</title>
  <g>
    <path d="M1102.55,1603.41Q898.4,913,694.51,222.45c-4.12-14-10.47-18.72-25-18.61-84.1.65-168.22.31-252.33.32-21.24,0-21.09,1.13-23.39,23-3.58,33.92-4.84,68.79-14,101.29Q234.19,843.27,86.27,1357.46q-35.47,124.13-70.8,248.3c-6.29,22.16-3.66,25.39,19.26,25.4,59.19,0,118.39-.45,177.57.32,15.39.2,21.74-5.31,25.57-20,31.75-121.89,64.44-243.53,96.26-365.4,3.33-12.74,8.4-17.18,22-17.12q190.81.83,381.63,0c12.47,0,17.8,3.14,21.22,15.77,33.32,123.09,67.57,245.93,101.1,369,3.48,12.77,9.78,17.87,22.94,17.65,34.26-.57,68.53-.19,102.8-.19,35.31,0,70.62-.36,105.92.18,13.46.2,16.33-6.09,13.83-17.46C1104.76,1610.34,1103.58,1606.89,1102.55,1603.41ZM395.36,1017.29,546.63,419.38l155.73,597.91Z" transform="translate(-12.52 -203.84)"/>
    <path d="M1947.32,795.82c-22.65-59.65-55.79-112.61-104.8-154.15-91-77.11-197.94-94.24-311.65-76.88-121.64,18.57-211.12,86.85-275.06,190.07-52.42,84.6-78.24,178-87.8,276.26-10.7,110.2-3.76,218.94,32.54,324.22,48.12,139.58,139.25,236.05,284.12,276.79,75.09,21.12,151.72,21.4,228.62,15.72,60.38-4.46,119.07-16.41,174.53-41.89,13.93-6.4,20.52-15.81,20.39-31.38-.43-51.93-.07-103.85-.22-155.78,0-16.62-3-18.58-18.44-12.08-84.36,35.38-172.31,45-262.44,34.63-162.77-18.67-228.78-143.52-226.61-290h19.59c114.24,0,228.49.71,342.72-.3,59.12-.52,118.22-3.8,177.3-6.44,25.46-1.14,29.73-4.35,33.27-29.69C1988.51,1006.7,1986.73,899.63,1947.32,795.82ZM1760.88,955.64c-.36,11-4.07,17.25-16.33,17.26q-168.18.09-336.35.56c-1.45,0-2.9-.81-6.86-2,9.71-69.85,27.17-135.11,81.19-184.35,63.15-57.55,201.71-61.65,254.18,52.41C1753.71,876.47,1762.22,915,1760.88,955.64Z" transform="translate(-12.52 -203.84)"/>
  </g>
</svg>
