<svg id="Capa_1" data-name="Capa 1" xmlns="http://www.w3.org/2000/svg" viewBox="0 0 984.97 969.14">
  <title>ILL</title>
  <g>
    <path d="M1188.65,1375.68q-32.16-111.71-64.34-223.4-34.9-121.3-69.91-242.58Q1020.09,790.83,985.73,672c-19.67-68.07-39.52-136.08-58.87-204.24-2.56-9-6.59-12.12-16-12.05-54,.43-108,.21-162,.21-13.76,0-13.82.63-15.1,14.63-1.87,20.5-2.42,41.48-7.42,61.26-13.49,53.2-29,105.87-43.78,158.75l-65.07,233.6q-45.35,163-90.79,326c-11.9,42.62-24,85.18-35.9,127.79-3.84,13.7-2.08,16,11.75,16,38,0,76-.32,114,.22,10.23.14,14.68-3.14,17.23-13.14,20.22-80,41.22-159.78,61.54-239.69,2.13-8.35,5.36-11.63,14.63-11.63q122.47.54,244.94,0c8.39,0,11.28,2.74,13.33,10.5,21.38,80.72,43.27,161.3,64.69,242,2.34,8.62,6.44,12,15.34,11.86,22-.43,44-.14,66-.14,22.32,0,44.66-.22,67,.15,8,.12,11.22-2.84,9.54-10.68C1190.24,1380.77,1189.38,1378.23,1188.65,1375.68ZM735,989.86c32.58-132.26,65.14-264.24,96.88-392.92,32.59,128.33,66.12,260.23,99.77,393Z" transform="translate(-489.03 -425)"/>
    <rect x="825.97" y="272" width="149" height="697" rx="12"/>
    <ellipse cx="899.97" cy="89.5" rx="85" ry="89.5"/>
  </g>
</svg>
