<svg id="Capa_1" data-name="Capa 1" xmlns="http://www.w3.org/2000/svg" viewBox="0 0 556.2 182.81">
  <defs>
    <style>
      .cls-1 {
        fill: #b3cb06;
      }

      .cls-2 {
        fill: #fff;
      }
    </style>
  </defs>
  <title>viewmyworks</title>
  <g>
    <g>
      <path class="cls-1" d="M82,432H57.89l-33-83.2H53.16L70.41,398l17.38-49.28h27.29Z" transform="translate(-18.1 -348.51)"/>
      <path class="cls-1" d="M147.23,431.47H121.82V348.75h25.41Z" transform="translate(-18.1 -348.51)"/>
      <path class="cls-1" d="M225.69,431.47H160.11V348.75H225v21.86H185.51v7.33h31V398h-31v11.58h40.18Z" transform="translate(-18.1 -348.51)"/>
      <path class="cls-1" d="M278,432h-22.1L229,348.75h27.65l11.47,44.08,15.59-44.32h19.15l15.6,44.32,11.23-44.08h27.06L329.57,432H307.94l-14.77-43.49Z" transform="translate(-18.1 -348.51)"/>
      <path class="cls-1" d="M416.54,431.47H392V348.75h25.17l18.08,29.43,18.2-29.43h25.06v82.72H454.12V385.15l-11.7,19.73H428.71l-12.17-19.73Z" transform="translate(-18.1 -348.51)"/>
      <path class="cls-1" d="M539.09,431.47H513.68V395.31l-30.13-46.56h28.71L526.68,372l14.65-23.28h28l-30.25,46Z" transform="translate(-18.1 -348.51)"/>
    </g>
    <g>
      <path class="cls-2" d="M76.13,529.92H50L18.1,431.49H50.82l13.57,52.15,18.45-52.43h22.65L124,483.64l13.28-52.15h32l-32.16,98.43H111.5L94,478.47Z" transform="translate(-18.1 -348.51)"/>
      <path class="cls-2" d="M169.25,480.43a49,49,0,0,1,14.82-35.94q15-15,37.61-15t37.47,15A49,49,0,0,1,274,480.43q0,21.26-14.82,36.07t-37.47,14.82q-22.65,0-37.61-15A48.93,48.93,0,0,1,169.25,480.43Zm36.91,16.92a21.62,21.62,0,0,0,31,0,24.41,24.41,0,0,0,6.15-16.92q0-10.21-6.15-16.78a21.3,21.3,0,0,0-31,0Q200,470.22,200,480.43A24.41,24.41,0,0,0,206.16,497.35Z" transform="translate(-18.1 -348.51)"/>
      <path class="cls-2" d="M352.27,491.05l29.23,38.31H346.4l-26-34.95H316.2v34.95H286.14V431.49H333.4q16.77,0,26.7,8.95A28.58,28.58,0,0,1,370.17,463a29.89,29.89,0,0,1-4.75,16.57A32.64,32.64,0,0,1,352.27,491.05ZM316.2,472.46h13.7a10.16,10.16,0,0,0,6.78-2.17,7.16,7.16,0,0,0,2.59-5.8,7,7,0,0,0-2.59-5.74,10.46,10.46,0,0,0-6.78-2.09H316.2Z" transform="translate(-18.1 -348.51)"/>
      <path class="cls-2" d="M417.57,529.36H387.51V431.49h30.06V468l27.54-36.49h35.38l-34.68,45.44,41.67,52.43H450.57l-33-42.22Z" transform="translate(-18.1 -348.51)"/>
      <path class="cls-2" d="M531.24,531.32q-24.19,0-40.69-10.49V491.47q6.72,5.75,19,9.65,12.59,4.06,22.23,4.06,11.33,0,11.33-4.62c0-1.3-1.4-2.61-4.2-3.91a161.48,161.48,0,0,0-16.22-5.46q-16.08-4.74-24.12-12.09t-8-19.23q0-14.67,11.19-22.51t30.9-7.83A82.61,82.61,0,0,1,568,437.36v28a66.44,66.44,0,0,0-18-7,76.48,76.48,0,0,0-19.58-2.93q-8.67,0-8.67,3.63,0,1.83,4.06,3.78,4.05,1.54,18.32,5.87,15.38,4.62,22.79,12a25,25,0,0,1,7.41,18.45q0,14.69-11.89,23.49T531.24,531.32Z" transform="translate(-18.1 -348.51)"/>
    </g>
  </g>
</svg>
